<svg xmlns="http://www.w3.org/2000/svg" version="1.1" xmlns:xlink="http://www.w3.org/1999/xlink" viewBox="0 0 200 200"><rect width="200" height="200" fill="url('#gradient')"></rect><defs><linearGradient id="gradient" gradientTransform="rotate(137 0.5 0.5)"><stop offset="0%" stop-color="#11255b"></stop><stop offset="100%" stop-color="#0a0e27"></stop></linearGradient></defs><g><g fill="#ffffff" transform="matrix(1.7758936313710376,0,0,1.7758936313710376,8.094574611567623,112.45073291352402)" stroke="#ffffff" stroke-width="0.2"><path d="M12.95-14.22L12.95 0L9.54 0L4.50-8.85L4.50 0L1.07 0L1.07-14.22L4.50-14.22L9.53-5.37L9.53-14.22L12.95-14.22ZM14.56-4.82L14.55-5.38Q14.55-6.96 15.17-8.20Q15.78-9.43 16.93-10.10Q18.09-10.76 19.64-10.76L19.64-10.76Q22.01-10.76 23.38-9.29Q24.75-7.82 24.75-5.29L24.75-5.29L24.75-5.18Q24.75-2.71 23.37-1.25Q22.00 0.20 19.66 0.20L19.66 0.20Q17.40 0.20 16.04-1.16Q14.67-2.51 14.56-4.82L14.56-4.82ZM17.85-5.77L17.84-5.18Q17.84-3.71 18.30-3.03Q18.76-2.34 19.66-2.34L19.66-2.34Q21.42-2.34 21.46-5.05L21.46-5.05L21.46-5.38Q21.46-8.22 19.64-8.22L19.64-8.22Q17.99-8.22 17.85-5.77L17.85-5.77ZM28.62-10.57L30.26-3.92L31.93-10.57L35.40-10.57L31.95 0L28.59 0L25.15-10.57L28.62-10.57ZM35.83-4.82L35.82-5.38Q35.82-6.96 36.44-8.20Q37.05-9.43 38.20-10.10Q39.36-10.76 40.91-10.76L40.91-10.76Q43.28-10.76 44.65-9.29Q46.02-7.82 46.02-5.29L46.02-5.29L46.02-5.18Q46.02-2.71 44.64-1.25Q43.27 0.20 40.93 0.20L40.93 0.20Q38.67 0.20 37.30-1.16Q35.94-2.51 35.83-4.82L35.83-4.82ZM39.12-5.77L39.11-5.18Q39.11-3.71 39.57-3.03Q40.03-2.34 40.93-2.34L40.93-2.34Q42.69-2.34 42.72-5.05L42.72-5.05L42.72-5.38Q42.72-8.22 40.91-8.22L40.91-8.22Q39.26-8.22 39.12-5.77L39.12-5.77ZM53.39 0L47.62 0L47.62-14.22L52.72-14.22Q55.47-14.22 56.90-13.21Q58.33-12.21 58.33-10.29L58.33-10.29Q58.33-9.19 57.82-8.41Q57.31-7.63 56.33-7.26L56.33-7.26Q57.44-6.96 58.04-6.16Q58.63-5.36 58.63-4.21L58.63-4.21Q58.63-2.12 57.31-1.07Q55.99-0.02 53.39 0L53.39 0ZM53.45-6.04L51.04-6.04L51.04-2.64L53.29-2.64Q54.22-2.64 54.72-3.06Q55.21-3.49 55.21-4.26L55.21-4.26Q55.21-6.04 53.45-6.04L53.45-6.04ZM51.04-11.57L51.04-8.29L52.83-8.29Q53.96-8.30 54.43-8.70Q54.91-9.10 54.91-9.88L54.91-9.88Q54.91-10.78 54.39-11.18Q53.88-11.57 52.72-11.57L52.72-11.57L51.04-11.57ZM69.61 0L66.32 0Q66.14-0.32 66.01-0.95L66.01-0.95Q65.10 0.20 63.47 0.20L63.47 0.20Q61.97 0.20 60.93-0.71Q59.88-1.61 59.88-2.98L59.88-2.98Q59.88-4.70 61.15-5.58Q62.42-6.46 64.84-6.46L64.84-6.46L65.86-6.46L65.86-7.01Q65.86-8.47 64.60-8.47L64.60-8.47Q63.43-8.47 63.43-7.31L63.43-7.31L60.14-7.31Q60.14-8.85 61.44-9.80Q62.74-10.76 64.77-10.76Q66.79-10.76 67.96-9.78Q69.13-8.79 69.16-7.07L69.16-7.07L69.16-2.39Q69.18-0.94 69.61-0.17L69.61-0.17L69.61 0ZM64.26-2.15L64.26-2.15Q64.87-2.15 65.28-2.41Q65.68-2.68 65.86-3.01L65.86-3.01L65.86-4.70L64.90-4.70Q63.18-4.70 63.18-3.15L63.18-3.15Q63.18-2.71 63.49-2.43Q63.79-2.15 64.26-2.15ZM70.92-10.57L74.00-10.57L74.11-9.33Q75.21-10.76 77.13-10.76L77.13-10.76Q78.78-10.76 79.59-9.78Q80.41-8.79 80.44-6.81L80.44-6.81L80.44 0L77.14 0L77.14-6.67Q77.14-7.47 76.82-7.85Q76.49-8.22 75.64-8.22L75.64-8.22Q74.68-8.22 74.21-7.46L74.21-7.46L74.21 0L70.92 0L70.92-10.57ZM86.73-2.34L86.73-2.34Q87.42-2.34 87.80-2.72Q88.18-3.10 88.17-3.77L88.17-3.77L91.26-3.77Q91.26-2.03 90.01-0.92Q88.77 0.20 86.81 0.20L86.81 0.20Q84.50 0.20 83.17-1.25Q81.85-2.70 81.85-5.25L81.85-5.25L81.85-5.39Q81.85-6.99 82.44-8.22Q83.03-9.44 84.14-10.10Q85.25-10.76 86.78-10.76L86.78-10.76Q88.84-10.76 90.05-9.62Q91.26-8.48 91.26-6.52L91.26-6.52L88.17-6.52Q88.17-7.34 87.77-7.78Q87.37-8.22 86.70-8.22L86.70-8.22Q85.42-8.22 85.21-6.59L85.21-6.59Q85.14-6.07 85.14-5.17L85.14-5.17Q85.14-3.57 85.52-2.96Q85.90-2.34 86.73-2.34ZM92.25-4.82L92.24-5.38Q92.24-6.96 92.85-8.20Q93.47-9.43 94.62-10.10Q95.77-10.76 97.32-10.76L97.32-10.76Q99.70-10.76 101.06-9.29Q102.43-7.82 102.43-5.29L102.43-5.29L102.43-5.18Q102.43-2.71 101.06-1.25Q99.69 0.20 97.34 0.20L97.34 0.20Q95.09 0.20 93.72-1.16Q92.35-2.51 92.25-4.82L92.25-4.82ZM95.54-5.77L95.53-5.18Q95.53-3.71 95.99-3.03Q96.45-2.34 97.34-2.34L97.34-2.34Q99.10-2.34 99.14-5.05L99.14-5.05L99.14-5.38Q99.14-8.22 97.32-8.22L97.32-8.22Q95.67-8.22 95.54-5.77L95.54-5.77Z"></path></g></g></svg>